<mxfile host="app.diagrams.net" agent="Mozilla/5.0 (Windows NT 10.0; Win64; x64) AppleWebKit/537.36 (KHTML, like Gecko) Chrome/135.0.0.0 Safari/537.36 Edg/135.0.0.0" version="26.2.12" pages="6">
  <diagram name="Главная" id="Fr9BtAwwHC7J-DejXwuc">
    <mxGraphModel dx="982" dy="990" grid="1" gridSize="10" guides="1" tooltips="1" connect="1" arrows="1" fold="1" page="1" pageScale="1" pageWidth="827" pageHeight="1169" math="0" shadow="0">
      <root>
        <mxCell id="0" />
        <mxCell id="1" parent="0" />
        <mxCell id="rmZkxyG95Qmx5ghkw50P-106" value="" style="rounded=0;whiteSpace=wrap;html=1;shadow=0;glass=0;sketch=0;strokeWidth=2;fontSize=9;strokeColor=none;" parent="1" vertex="1">
          <mxGeometry x="40" y="40" width="640" height="520" as="geometry" />
        </mxCell>
        <mxCell id="9HXgxc9Uw71FXYPcQhYW-1" value="" style="rounded=0;whiteSpace=wrap;html=1;fillColor=none;movable=1;resizable=1;rotatable=1;deletable=1;editable=1;connectable=1;strokeColor=#000000;strokeWidth=3;" parent="1" vertex="1">
          <mxGeometry x="80" y="80" width="560" height="440" as="geometry" />
        </mxCell>
        <mxCell id="rmZkxyG95Qmx5ghkw50P-67" value="" style="rounded=0;whiteSpace=wrap;html=1;fontSize=9;fillColor=#f5f5f5;fontColor=#333333;strokeColor=none;" parent="1" vertex="1">
          <mxGeometry x="80" y="80" width="560" height="440" as="geometry" />
        </mxCell>
        <mxCell id="rmZkxyG95Qmx5ghkw50P-32" value="" style="rounded=0;whiteSpace=wrap;html=1;fillColor=#e1d5e7;strokeColor=#9673a6;" parent="1" vertex="1">
          <mxGeometry x="80" y="270" width="140" height="90" as="geometry" />
        </mxCell>
        <mxCell id="rmZkxyG95Qmx5ghkw50P-33" value="" style="sketch=0;outlineConnect=0;fontColor=#232F3E;gradientColor=none;fillColor=#9673A6;strokeColor=none;dashed=0;verticalLabelPosition=bottom;verticalAlign=top;align=center;html=1;fontSize=12;fontStyle=0;aspect=fixed;pointerEvents=1;shape=mxgraph.aws4.container_registry_image;" parent="1" vertex="1">
          <mxGeometry x="125.5" y="290.5" width="49" height="49" as="geometry" />
        </mxCell>
        <mxCell id="rmZkxyG95Qmx5ghkw50P-34" value="" style="rounded=0;whiteSpace=wrap;html=1;fillColor=#ffe6cc;strokeColor=#d79b00;" parent="1" vertex="1">
          <mxGeometry x="330.5" y="360" width="119.5" height="100" as="geometry" />
        </mxCell>
        <mxCell id="rmZkxyG95Qmx5ghkw50P-35" value="" style="sketch=0;outlineConnect=0;fontColor=#232F3E;gradientColor=none;fillColor=#D79B00;strokeColor=none;dashed=0;verticalLabelPosition=bottom;verticalAlign=top;align=center;html=1;fontSize=12;fontStyle=0;aspect=fixed;pointerEvents=1;shape=mxgraph.aws4.container_registry_image;" parent="1" vertex="1">
          <mxGeometry x="365.75" y="385.5" width="49" height="49" as="geometry" />
        </mxCell>
        <mxCell id="rmZkxyG95Qmx5ghkw50P-36" value="" style="rounded=0;whiteSpace=wrap;html=1;fillColor=#f8cecc;strokeColor=#b85450;" parent="1" vertex="1">
          <mxGeometry x="220" y="270" width="70" height="90" as="geometry" />
        </mxCell>
        <mxCell id="rmZkxyG95Qmx5ghkw50P-37" value="" style="sketch=0;outlineConnect=0;fontColor=#232F3E;gradientColor=none;fillColor=#B85450;strokeColor=none;dashed=0;verticalLabelPosition=bottom;verticalAlign=top;align=center;html=1;fontSize=12;fontStyle=0;aspect=fixed;pointerEvents=1;shape=mxgraph.aws4.container_registry_image;" parent="1" vertex="1">
          <mxGeometry x="231.5" y="290.5" width="49" height="49" as="geometry" />
        </mxCell>
        <mxCell id="rmZkxyG95Qmx5ghkw50P-56" value="" style="rounded=0;whiteSpace=wrap;html=1;fillColor=#b1ddf0;strokeColor=#10739e;" parent="1" vertex="1">
          <mxGeometry x="381.5" y="269.5" width="168.5" height="90" as="geometry" />
        </mxCell>
        <mxCell id="rmZkxyG95Qmx5ghkw50P-57" value="" style="sketch=0;outlineConnect=0;fontColor=#232F3E;gradientColor=none;fillColor=#10739E;strokeColor=none;dashed=0;verticalLabelPosition=bottom;verticalAlign=top;align=center;html=1;fontSize=12;fontStyle=0;aspect=fixed;pointerEvents=1;shape=mxgraph.aws4.container_registry_image;" parent="1" vertex="1">
          <mxGeometry x="441" y="290.5" width="49.5" height="49.5" as="geometry" />
        </mxCell>
        <mxCell id="rmZkxyG95Qmx5ghkw50P-64" value="&lt;b&gt;Альбомы&lt;/b&gt;" style="text;html=1;strokeColor=none;fillColor=none;align=left;verticalAlign=middle;whiteSpace=wrap;rounded=0;fontSize=14;" parent="1" vertex="1">
          <mxGeometry x="90" y="130" width="250" height="30" as="geometry" />
        </mxCell>
        <mxCell id="rmZkxyG95Qmx5ghkw50P-65" value="ноябрь, 2024" style="text;html=1;strokeColor=none;fillColor=none;align=left;verticalAlign=middle;whiteSpace=wrap;rounded=0;fontSize=14;" parent="1" vertex="1">
          <mxGeometry x="90" y="240" width="250" height="30" as="geometry" />
        </mxCell>
        <mxCell id="rmZkxyG95Qmx5ghkw50P-15" value="" style="rounded=1;whiteSpace=wrap;html=1;fillColor=#647687;fontColor=#ffffff;strokeColor=#314354;shadow=1;" parent="1" vertex="1">
          <mxGeometry x="90" y="90" width="41" height="40" as="geometry" />
        </mxCell>
        <mxCell id="K8n-LxShcm4HW1wdmo7G-1" value="" style="rounded=0;whiteSpace=wrap;html=1;" parent="1" vertex="1">
          <mxGeometry x="90" y="160" width="70" height="70" as="geometry" />
        </mxCell>
        <mxCell id="K8n-LxShcm4HW1wdmo7G-3" value="" style="endArrow=none;html=1;rounded=0;strokeWidth=4;strokeColor=#FFFFFF;" parent="1" edge="1">
          <mxGeometry width="50" height="50" relative="1" as="geometry">
            <mxPoint x="120.5" y="100" as="sourcePoint" />
            <mxPoint x="100.5" y="100" as="targetPoint" />
          </mxGeometry>
        </mxCell>
        <mxCell id="K8n-LxShcm4HW1wdmo7G-4" value="" style="endArrow=none;html=1;rounded=0;strokeWidth=4;strokeColor=#ffffff;" parent="1" edge="1">
          <mxGeometry width="50" height="50" relative="1" as="geometry">
            <mxPoint x="120.49999999999977" y="109.83" as="sourcePoint" />
            <mxPoint x="100.49999999999977" y="109.83" as="targetPoint" />
          </mxGeometry>
        </mxCell>
        <mxCell id="K8n-LxShcm4HW1wdmo7G-5" value="" style="endArrow=none;html=1;rounded=0;strokeWidth=4;strokeColor=#FFFFFF;" parent="1" edge="1">
          <mxGeometry width="50" height="50" relative="1" as="geometry">
            <mxPoint x="120.49999999999977" y="119.82999999999998" as="sourcePoint" />
            <mxPoint x="100.49999999999977" y="119.82999999999998" as="targetPoint" />
          </mxGeometry>
        </mxCell>
        <mxCell id="K8n-LxShcm4HW1wdmo7G-7" value="&lt;b&gt;Главная&lt;/b&gt;" style="rounded=1;whiteSpace=wrap;html=1;fillColor=#647687;strokeColor=none;fontColor=#ffffff;shadow=1;" parent="1" vertex="1">
          <mxGeometry x="140" y="95" width="70.5" height="30" as="geometry" />
        </mxCell>
        <mxCell id="K8n-LxShcm4HW1wdmo7G-9" value="" style="ellipse;whiteSpace=wrap;html=1;aspect=fixed;fillColor=#647687;fontColor=#ffffff;strokeColor=none;shadow=1;" parent="1" vertex="1">
          <mxGeometry x="210.5" y="95" width="30" height="30" as="geometry" />
        </mxCell>
        <mxCell id="K8n-LxShcm4HW1wdmo7G-12" value="" style="group" parent="1" vertex="1" connectable="0">
          <mxGeometry x="220" y="100" width="10" height="20" as="geometry" />
        </mxCell>
        <mxCell id="K8n-LxShcm4HW1wdmo7G-10" value="" style="endArrow=none;html=1;rounded=0;strokeColor=#FFFFFF;strokeWidth=4;" parent="K8n-LxShcm4HW1wdmo7G-12" edge="1">
          <mxGeometry width="50" height="50" relative="1" as="geometry">
            <mxPoint y="20" as="sourcePoint" />
            <mxPoint x="10" y="10" as="targetPoint" />
          </mxGeometry>
        </mxCell>
        <mxCell id="K8n-LxShcm4HW1wdmo7G-11" value="" style="endArrow=none;html=1;rounded=0;strokeColor=#FFFFFF;strokeWidth=4;" parent="K8n-LxShcm4HW1wdmo7G-12" edge="1">
          <mxGeometry width="50" height="50" relative="1" as="geometry">
            <mxPoint as="sourcePoint" />
            <mxPoint x="10" y="10" as="targetPoint" />
          </mxGeometry>
        </mxCell>
        <mxCell id="K8n-LxShcm4HW1wdmo7G-13" value="&lt;b&gt;Альбом 1&lt;/b&gt;" style="rounded=1;whiteSpace=wrap;html=1;fillColor=#647687;strokeColor=none;fontColor=#ffffff;shadow=1;" parent="1" vertex="1">
          <mxGeometry x="240.5" y="95" width="70.5" height="30" as="geometry" />
        </mxCell>
        <mxCell id="K8n-LxShcm4HW1wdmo7G-14" value="" style="ellipse;whiteSpace=wrap;html=1;aspect=fixed;fillColor=#647687;fontColor=#ffffff;strokeColor=none;shadow=1;" parent="1" vertex="1">
          <mxGeometry x="311" y="95" width="30" height="30" as="geometry" />
        </mxCell>
        <mxCell id="K8n-LxShcm4HW1wdmo7G-15" value="" style="group" parent="1" vertex="1" connectable="0">
          <mxGeometry x="320.5" y="100" width="10" height="20" as="geometry" />
        </mxCell>
        <mxCell id="K8n-LxShcm4HW1wdmo7G-16" value="" style="endArrow=none;html=1;rounded=0;strokeColor=#FFFFFF;strokeWidth=4;" parent="K8n-LxShcm4HW1wdmo7G-15" edge="1">
          <mxGeometry width="50" height="50" relative="1" as="geometry">
            <mxPoint y="20" as="sourcePoint" />
            <mxPoint x="10" y="10" as="targetPoint" />
          </mxGeometry>
        </mxCell>
        <mxCell id="K8n-LxShcm4HW1wdmo7G-17" value="" style="endArrow=none;html=1;rounded=0;strokeColor=#FFFFFF;strokeWidth=4;" parent="K8n-LxShcm4HW1wdmo7G-15" edge="1">
          <mxGeometry width="50" height="50" relative="1" as="geometry">
            <mxPoint as="sourcePoint" />
            <mxPoint x="10" y="10" as="targetPoint" />
          </mxGeometry>
        </mxCell>
        <mxCell id="K8n-LxShcm4HW1wdmo7G-18" value="&lt;b&gt;Альбом 2&lt;/b&gt;" style="rounded=1;whiteSpace=wrap;html=1;fillColor=#647687;strokeColor=none;fontColor=#ffffff;shadow=1;" parent="1" vertex="1">
          <mxGeometry x="341" y="95" width="70.5" height="30" as="geometry" />
        </mxCell>
        <mxCell id="K8n-LxShcm4HW1wdmo7G-19" value="" style="ellipse;whiteSpace=wrap;html=1;aspect=fixed;fillColor=#647687;fontColor=#ffffff;strokeColor=none;shadow=1;" parent="1" vertex="1">
          <mxGeometry x="411.5" y="95" width="30" height="30" as="geometry" />
        </mxCell>
        <mxCell id="K8n-LxShcm4HW1wdmo7G-20" value="" style="group" parent="1" vertex="1" connectable="0">
          <mxGeometry x="421" y="100" width="10" height="20" as="geometry" />
        </mxCell>
        <mxCell id="K8n-LxShcm4HW1wdmo7G-21" value="" style="endArrow=none;html=1;rounded=0;strokeColor=#FFFFFF;strokeWidth=4;" parent="K8n-LxShcm4HW1wdmo7G-20" edge="1">
          <mxGeometry width="50" height="50" relative="1" as="geometry">
            <mxPoint y="20" as="sourcePoint" />
            <mxPoint x="10" y="10" as="targetPoint" />
          </mxGeometry>
        </mxCell>
        <mxCell id="K8n-LxShcm4HW1wdmo7G-22" value="" style="endArrow=none;html=1;rounded=0;strokeColor=#FFFFFF;strokeWidth=4;" parent="K8n-LxShcm4HW1wdmo7G-20" edge="1">
          <mxGeometry width="50" height="50" relative="1" as="geometry">
            <mxPoint as="sourcePoint" />
            <mxPoint x="10" y="10" as="targetPoint" />
          </mxGeometry>
        </mxCell>
        <mxCell id="K8n-LxShcm4HW1wdmo7G-23" value="" style="sketch=0;outlineConnect=0;fontColor=#232F3E;gradientColor=none;fillColor=#B85450;strokeColor=none;dashed=0;verticalLabelPosition=bottom;verticalAlign=top;align=center;html=1;fontSize=12;fontStyle=0;aspect=fixed;pointerEvents=1;shape=mxgraph.aws4.container_registry_image;" parent="1" vertex="1">
          <mxGeometry x="100.5" y="170.5" width="19.5" height="19.5" as="geometry" />
        </mxCell>
        <mxCell id="K8n-LxShcm4HW1wdmo7G-24" value="" style="sketch=0;outlineConnect=0;fontColor=#232F3E;gradientColor=none;fillColor=#D79B00;strokeColor=none;dashed=0;verticalLabelPosition=bottom;verticalAlign=top;align=center;html=1;fontSize=12;fontStyle=0;aspect=fixed;pointerEvents=1;shape=mxgraph.aws4.container_registry_image;" parent="1" vertex="1">
          <mxGeometry x="130" y="170.5" width="19.5" height="19.5" as="geometry" />
        </mxCell>
        <mxCell id="K8n-LxShcm4HW1wdmo7G-25" value="" style="sketch=0;outlineConnect=0;fontColor=#232F3E;gradientColor=none;fillColor=#82B366;strokeColor=none;dashed=0;verticalLabelPosition=bottom;verticalAlign=top;align=center;html=1;fontSize=12;fontStyle=0;aspect=fixed;pointerEvents=1;shape=mxgraph.aws4.container_registry_image;" parent="1" vertex="1">
          <mxGeometry x="100.5" y="200.5" width="19.5" height="19.5" as="geometry" />
        </mxCell>
        <mxCell id="K8n-LxShcm4HW1wdmo7G-26" value="" style="rounded=0;whiteSpace=wrap;html=1;" parent="1" vertex="1">
          <mxGeometry x="170.5" y="160" width="70" height="70" as="geometry" />
        </mxCell>
        <mxCell id="K8n-LxShcm4HW1wdmo7G-27" value="" style="sketch=0;outlineConnect=0;fontColor=#000000;fillColor=#fa6800;strokeColor=#C73500;dashed=0;verticalLabelPosition=bottom;verticalAlign=top;align=center;html=1;fontSize=12;fontStyle=0;aspect=fixed;pointerEvents=1;shape=mxgraph.aws4.container_registry_image;" parent="1" vertex="1">
          <mxGeometry x="181" y="170.5" width="19.5" height="19.5" as="geometry" />
        </mxCell>
        <mxCell id="K8n-LxShcm4HW1wdmo7G-28" value="" style="sketch=0;outlineConnect=0;fontColor=#ffffff;fillColor=#d80073;strokeColor=#A50040;dashed=0;verticalLabelPosition=bottom;verticalAlign=top;align=center;html=1;fontSize=12;fontStyle=0;aspect=fixed;pointerEvents=1;shape=mxgraph.aws4.container_registry_image;" parent="1" vertex="1">
          <mxGeometry x="210.5" y="170.5" width="19.5" height="19.5" as="geometry" />
        </mxCell>
        <mxCell id="K8n-LxShcm4HW1wdmo7G-29" value="" style="sketch=0;outlineConnect=0;fontColor=#ffffff;fillColor=#0050ef;strokeColor=#001DBC;dashed=0;verticalLabelPosition=bottom;verticalAlign=top;align=center;html=1;fontSize=12;fontStyle=0;aspect=fixed;pointerEvents=1;shape=mxgraph.aws4.container_registry_image;" parent="1" vertex="1">
          <mxGeometry x="181" y="200.5" width="19.5" height="19.5" as="geometry" />
        </mxCell>
        <mxCell id="K8n-LxShcm4HW1wdmo7G-30" value="" style="sketch=0;outlineConnect=0;fontColor=#232F3E;gradientColor=none;fillColor=#23445D;strokeColor=none;dashed=0;verticalLabelPosition=bottom;verticalAlign=top;align=center;html=1;fontSize=12;fontStyle=0;aspect=fixed;pointerEvents=1;shape=mxgraph.aws4.container_registry_image;" parent="1" vertex="1">
          <mxGeometry x="210.5" y="200.5" width="19.5" height="19.5" as="geometry" />
        </mxCell>
        <mxCell id="K8n-LxShcm4HW1wdmo7G-31" value="" style="rounded=0;whiteSpace=wrap;html=1;" parent="1" vertex="1">
          <mxGeometry x="250.5" y="160" width="70" height="70" as="geometry" />
        </mxCell>
        <mxCell id="K8n-LxShcm4HW1wdmo7G-32" value="" style="sketch=0;outlineConnect=0;fillColor=#a0522d;strokeColor=#6D1F00;dashed=0;verticalLabelPosition=bottom;verticalAlign=top;align=center;html=1;fontSize=12;fontStyle=0;aspect=fixed;pointerEvents=1;shape=mxgraph.aws4.container_registry_image;fontColor=#ffffff;" parent="1" vertex="1">
          <mxGeometry x="261" y="170.5" width="19.5" height="19.5" as="geometry" />
        </mxCell>
        <mxCell id="K8n-LxShcm4HW1wdmo7G-33" value="" style="sketch=0;outlineConnect=0;fontColor=#ffffff;fillColor=#76608a;strokeColor=#432D57;dashed=0;verticalLabelPosition=bottom;verticalAlign=top;align=center;html=1;fontSize=12;fontStyle=0;aspect=fixed;pointerEvents=1;shape=mxgraph.aws4.container_registry_image;" parent="1" vertex="1">
          <mxGeometry x="290.5" y="170.5" width="19.5" height="19.5" as="geometry" />
        </mxCell>
        <mxCell id="K8n-LxShcm4HW1wdmo7G-35" value="" style="rounded=0;whiteSpace=wrap;html=1;" parent="1" vertex="1">
          <mxGeometry x="330.5" y="160" width="70" height="70" as="geometry" />
        </mxCell>
        <mxCell id="K8n-LxShcm4HW1wdmo7G-36" value="" style="sketch=0;outlineConnect=0;fontColor=#000000;fillColor=#e3c800;strokeColor=#B09500;dashed=0;verticalLabelPosition=bottom;verticalAlign=top;align=center;html=1;fontSize=12;fontStyle=0;aspect=fixed;pointerEvents=1;shape=mxgraph.aws4.container_registry_image;" parent="1" vertex="1">
          <mxGeometry x="341" y="170.5" width="19.5" height="19.5" as="geometry" />
        </mxCell>
        <mxCell id="K8n-LxShcm4HW1wdmo7G-40" value="Название" style="rounded=1;whiteSpace=wrap;html=1;shadow=0;" parent="1" vertex="1">
          <mxGeometry x="94.75" y="185" width="60.5" height="20" as="geometry" />
        </mxCell>
        <mxCell id="K8n-LxShcm4HW1wdmo7G-41" value="Название" style="rounded=1;whiteSpace=wrap;html=1;shadow=0;" parent="1" vertex="1">
          <mxGeometry x="175.25" y="185" width="60.5" height="20" as="geometry" />
        </mxCell>
        <mxCell id="K8n-LxShcm4HW1wdmo7G-42" value="Название" style="rounded=1;whiteSpace=wrap;html=1;shadow=0;" parent="1" vertex="1">
          <mxGeometry x="255.25" y="185" width="60.5" height="20" as="geometry" />
        </mxCell>
        <mxCell id="K8n-LxShcm4HW1wdmo7G-43" value="Название" style="rounded=1;whiteSpace=wrap;html=1;shadow=0;" parent="1" vertex="1">
          <mxGeometry x="335.25" y="185" width="60.5" height="20" as="geometry" />
        </mxCell>
        <mxCell id="K8n-LxShcm4HW1wdmo7G-44" value="" style="rounded=0;whiteSpace=wrap;html=1;fillColor=#d5e8d4;strokeColor=#82b366;" parent="1" vertex="1">
          <mxGeometry x="290.5" y="270" width="90" height="90" as="geometry" />
        </mxCell>
        <mxCell id="K8n-LxShcm4HW1wdmo7G-45" value="" style="sketch=0;outlineConnect=0;fontColor=#232F3E;gradientColor=none;fillColor=#82B366;strokeColor=none;dashed=0;verticalLabelPosition=bottom;verticalAlign=top;align=center;html=1;fontSize=12;fontStyle=0;aspect=fixed;pointerEvents=1;shape=mxgraph.aws4.container_registry_image;" parent="1" vertex="1">
          <mxGeometry x="311" y="290.5" width="49" height="49" as="geometry" />
        </mxCell>
        <mxCell id="K8n-LxShcm4HW1wdmo7G-46" value="" style="rounded=0;whiteSpace=wrap;html=1;fillColor=#e1d5e7;strokeColor=#9673a6;" parent="1" vertex="1">
          <mxGeometry x="550" y="269.5" width="90" height="90" as="geometry" />
        </mxCell>
        <mxCell id="K8n-LxShcm4HW1wdmo7G-47" value="" style="sketch=0;outlineConnect=0;fillColor=#A680B8;strokeColor=#9673a6;dashed=0;verticalLabelPosition=bottom;verticalAlign=top;align=center;html=1;fontSize=12;fontStyle=0;aspect=fixed;pointerEvents=1;shape=mxgraph.aws4.container_registry_image;" parent="1" vertex="1">
          <mxGeometry x="570.5" y="290" width="49" height="49" as="geometry" />
        </mxCell>
        <mxCell id="K8n-LxShcm4HW1wdmo7G-48" value="" style="rounded=0;whiteSpace=wrap;html=1;fillColor=#bac8d3;strokeColor=#23445d;" parent="1" vertex="1">
          <mxGeometry x="80.5" y="360" width="249.5" height="100" as="geometry" />
        </mxCell>
        <mxCell id="K8n-LxShcm4HW1wdmo7G-49" value="" style="sketch=0;outlineConnect=0;fontColor=#232F3E;gradientColor=none;fillColor=#23445D;strokeColor=none;dashed=0;verticalLabelPosition=bottom;verticalAlign=top;align=center;html=1;fontSize=12;fontStyle=0;aspect=fixed;pointerEvents=1;shape=mxgraph.aws4.container_registry_image;" parent="1" vertex="1">
          <mxGeometry x="180.75" y="385.5" width="49" height="49" as="geometry" />
        </mxCell>
        <mxCell id="K8n-LxShcm4HW1wdmo7G-52" value="ноябрь, 2024" style="text;html=1;strokeColor=none;fillColor=none;align=left;verticalAlign=middle;whiteSpace=wrap;rounded=0;fontSize=14;" parent="1" vertex="1">
          <mxGeometry x="85.25" y="470" width="250" height="30" as="geometry" />
        </mxCell>
        <mxCell id="K8n-LxShcm4HW1wdmo7G-53" value="" style="rounded=0;whiteSpace=wrap;html=1;fillColor=#dae8fc;strokeColor=#6c8ebf;" parent="1" vertex="1">
          <mxGeometry x="80" y="495" width="140" height="25" as="geometry" />
        </mxCell>
        <mxCell id="K8n-LxShcm4HW1wdmo7G-55" value="" style="rounded=0;whiteSpace=wrap;html=1;fillColor=#d5e8d4;strokeColor=#82b366;" parent="1" vertex="1">
          <mxGeometry x="221" y="495" width="90" height="25" as="geometry" />
        </mxCell>
        <mxCell id="K8n-LxShcm4HW1wdmo7G-56" value="" style="rounded=0;whiteSpace=wrap;html=1;fillColor=#fff2cc;strokeColor=#d6b656;" parent="1" vertex="1">
          <mxGeometry x="311" y="495" width="139" height="25" as="geometry" />
        </mxCell>
        <mxCell id="K8n-LxShcm4HW1wdmo7G-57" value="" style="rounded=0;whiteSpace=wrap;html=1;fillColor=#f8cecc;strokeColor=#b85450;" parent="1" vertex="1">
          <mxGeometry x="450" y="495" width="90" height="25" as="geometry" />
        </mxCell>
        <mxCell id="K8n-LxShcm4HW1wdmo7G-58" value="" style="rounded=0;whiteSpace=wrap;html=1;fillColor=#e1d5e7;strokeColor=#9673a6;" parent="1" vertex="1">
          <mxGeometry x="540" y="495" width="100" height="25" as="geometry" />
        </mxCell>
        <mxCell id="K8n-LxShcm4HW1wdmo7G-62" value="&lt;b&gt;&amp;nbsp; Сортировка&lt;/b&gt;" style="rounded=1;whiteSpace=wrap;html=1;fillColor=#647687;strokeColor=none;fontColor=#ffffff;shadow=1;align=left;" parent="1" vertex="1">
          <mxGeometry x="510" y="95" width="115.25" height="30" as="geometry" />
        </mxCell>
        <mxCell id="K8n-LxShcm4HW1wdmo7G-63" value="" style="endArrow=classic;html=1;rounded=0;strokeColor=#FFFFFF;strokeWidth=4;" parent="1" edge="1">
          <mxGeometry width="50" height="50" relative="1" as="geometry">
            <mxPoint x="610" y="100" as="sourcePoint" />
            <mxPoint x="610" y="125" as="targetPoint" />
          </mxGeometry>
        </mxCell>
      </root>
    </mxGraphModel>
  </diagram>
  <diagram name="Вход" id="0XKrimrg06YZNdFm5KyV">
    <mxGraphModel dx="982" dy="990" grid="1" gridSize="10" guides="1" tooltips="1" connect="1" arrows="1" fold="1" page="1" pageScale="1" pageWidth="827" pageHeight="1169" math="0" shadow="0">
      <root>
        <mxCell id="lxbhrmO_WVAqzLBvDy5G-0" />
        <mxCell id="lxbhrmO_WVAqzLBvDy5G-1" parent="lxbhrmO_WVAqzLBvDy5G-0" />
        <mxCell id="lxbhrmO_WVAqzLBvDy5G-2" value="" style="rounded=0;whiteSpace=wrap;html=1;shadow=0;glass=0;sketch=0;strokeWidth=2;fontSize=9;strokeColor=none;" parent="lxbhrmO_WVAqzLBvDy5G-1" vertex="1">
          <mxGeometry x="40" y="40" width="360" height="400" as="geometry" />
        </mxCell>
        <mxCell id="lxbhrmO_WVAqzLBvDy5G-44" value="" style="rounded=0;whiteSpace=wrap;html=1;fillColor=none;movable=1;resizable=1;rotatable=1;deletable=1;editable=1;connectable=1;strokeColor=#000000;strokeWidth=3;" parent="lxbhrmO_WVAqzLBvDy5G-1" vertex="1">
          <mxGeometry x="80" y="120" width="270" height="270" as="geometry" />
        </mxCell>
        <mxCell id="lxbhrmO_WVAqzLBvDy5G-3" value="" style="rounded=0;whiteSpace=wrap;html=1;fontSize=9;fillColor=#f5f5f5;fontColor=#333333;strokeColor=none;" parent="lxbhrmO_WVAqzLBvDy5G-1" vertex="1">
          <mxGeometry x="80" y="120" width="270" height="270" as="geometry" />
        </mxCell>
        <mxCell id="71NNq_Q7_1ZH0H5dtehQ-1" value="&lt;font style=&quot;font-size: 14px;&quot;&gt;&amp;nbsp; &amp;nbsp; Почта&lt;/font&gt;" style="rounded=0;whiteSpace=wrap;html=1;shadow=1;glass=0;sketch=0;strokeColor=default;strokeWidth=1;fontSize=19;fillColor=#FFFFFF;align=left;" parent="lxbhrmO_WVAqzLBvDy5G-1" vertex="1">
          <mxGeometry x="90" y="210" width="250" height="40" as="geometry" />
        </mxCell>
        <mxCell id="71NNq_Q7_1ZH0H5dtehQ-2" value="&lt;font style=&quot;font-size: 14px;&quot;&gt;&amp;nbsp; &amp;nbsp; Пароль&lt;/font&gt;" style="rounded=0;whiteSpace=wrap;html=1;shadow=1;glass=0;sketch=0;strokeColor=default;strokeWidth=1;fontSize=19;fillColor=#FFFFFF;align=left;" parent="lxbhrmO_WVAqzLBvDy5G-1" vertex="1">
          <mxGeometry x="90" y="270" width="250" height="40" as="geometry" />
        </mxCell>
        <mxCell id="10V4KUjU7J6ptE0vuFdf-0" value="Войти" style="rounded=1;whiteSpace=wrap;html=1;fillColor=#647687;fontColor=#ffffff;strokeColor=#314354;glass=0;shadow=1;" parent="lxbhrmO_WVAqzLBvDy5G-1" vertex="1">
          <mxGeometry x="90" y="330" width="250" height="40" as="geometry" />
        </mxCell>
        <mxCell id="NtdQygd_8jUoeAcA6vJD-1" value="" style="rounded=1;whiteSpace=wrap;html=1;shadow=1;fillColor=#bac8d3;strokeColor=#23445d;" parent="lxbhrmO_WVAqzLBvDy5G-1" vertex="1">
          <mxGeometry x="90" y="140" width="250" height="50" as="geometry" />
        </mxCell>
        <mxCell id="NtdQygd_8jUoeAcA6vJD-2" value="" style="rounded=1;whiteSpace=wrap;html=1;shadow=0;fillColor=#647687;strokeColor=#314354;fontColor=#ffffff;" parent="lxbhrmO_WVAqzLBvDy5G-1" vertex="1">
          <mxGeometry x="95" y="147.5" width="115" height="35" as="geometry" />
        </mxCell>
        <mxCell id="71NNq_Q7_1ZH0H5dtehQ-0" value="&lt;font style=&quot;font-size: 15px;&quot;&gt;Вход&lt;/font&gt;" style="text;html=1;strokeColor=none;fillColor=none;align=center;verticalAlign=middle;whiteSpace=wrap;rounded=0;fontSize=15;fontColor=#FFFFFF;fontStyle=1" parent="lxbhrmO_WVAqzLBvDy5G-1" vertex="1">
          <mxGeometry x="120" y="150" width="60" height="30" as="geometry" />
        </mxCell>
        <mxCell id="NtdQygd_8jUoeAcA6vJD-3" value="&lt;font style=&quot;font-size: 15px;&quot;&gt;Регистрация&lt;/font&gt;" style="text;html=1;strokeColor=none;fillColor=none;align=center;verticalAlign=middle;whiteSpace=wrap;rounded=0;fontSize=15;fontColor=#000000;fontStyle=1" parent="lxbhrmO_WVAqzLBvDy5G-1" vertex="1">
          <mxGeometry x="240" y="150" width="60" height="30" as="geometry" />
        </mxCell>
      </root>
    </mxGraphModel>
  </diagram>
  <diagram name="Регистрация" id="pf_n46ATbUcz0oYfSnnU">
    <mxGraphModel dx="982" dy="990" grid="1" gridSize="10" guides="1" tooltips="1" connect="1" arrows="1" fold="1" page="1" pageScale="1" pageWidth="827" pageHeight="1169" math="0" shadow="0">
      <root>
        <mxCell id="TonXEYxNk_pdtellfxzJ-0" />
        <mxCell id="TonXEYxNk_pdtellfxzJ-1" parent="TonXEYxNk_pdtellfxzJ-0" />
        <mxCell id="TonXEYxNk_pdtellfxzJ-2" value="" style="rounded=0;whiteSpace=wrap;html=1;shadow=0;glass=0;sketch=0;strokeWidth=2;fontSize=9;strokeColor=none;" parent="TonXEYxNk_pdtellfxzJ-1" vertex="1">
          <mxGeometry x="40" y="80" width="360" height="480" as="geometry" />
        </mxCell>
        <mxCell id="TonXEYxNk_pdtellfxzJ-4" value="" style="rounded=0;whiteSpace=wrap;html=1;fontSize=9;fillColor=#f5f5f5;fontColor=#333333;strokeColor=none;" parent="TonXEYxNk_pdtellfxzJ-1" vertex="1">
          <mxGeometry x="80" y="120" width="270" height="400" as="geometry" />
        </mxCell>
        <mxCell id="TonXEYxNk_pdtellfxzJ-5" value="&lt;font style=&quot;font-size: 14px;&quot;&gt;&amp;nbsp; &amp;nbsp; Логин&lt;/font&gt;" style="rounded=0;whiteSpace=wrap;html=1;shadow=1;glass=0;sketch=0;strokeColor=default;strokeWidth=1;fontSize=19;fillColor=#FFFFFF;align=left;" parent="TonXEYxNk_pdtellfxzJ-1" vertex="1">
          <mxGeometry x="90" y="210" width="250" height="40" as="geometry" />
        </mxCell>
        <mxCell id="TonXEYxNk_pdtellfxzJ-6" value="&lt;font style=&quot;font-size: 14px;&quot;&gt;&amp;nbsp; &amp;nbsp; Никнейм&lt;/font&gt;" style="rounded=0;whiteSpace=wrap;html=1;shadow=1;glass=0;sketch=0;strokeColor=default;strokeWidth=1;fontSize=19;fillColor=#FFFFFF;align=left;" parent="TonXEYxNk_pdtellfxzJ-1" vertex="1">
          <mxGeometry x="90" y="280" width="250" height="40" as="geometry" />
        </mxCell>
        <mxCell id="TonXEYxNk_pdtellfxzJ-7" value="Войти" style="rounded=1;whiteSpace=wrap;html=1;fillColor=#647687;fontColor=#ffffff;strokeColor=#314354;glass=0;shadow=1;" parent="TonXEYxNk_pdtellfxzJ-1" vertex="1">
          <mxGeometry x="90" y="460" width="250" height="40" as="geometry" />
        </mxCell>
        <mxCell id="TonXEYxNk_pdtellfxzJ-8" value="" style="rounded=1;whiteSpace=wrap;html=1;shadow=1;fillColor=#bac8d3;strokeColor=#23445d;" parent="TonXEYxNk_pdtellfxzJ-1" vertex="1">
          <mxGeometry x="90" y="140" width="250" height="50" as="geometry" />
        </mxCell>
        <mxCell id="TonXEYxNk_pdtellfxzJ-9" value="" style="rounded=1;whiteSpace=wrap;html=1;shadow=0;fillColor=#647687;strokeColor=#314354;fontColor=#ffffff;" parent="TonXEYxNk_pdtellfxzJ-1" vertex="1">
          <mxGeometry x="220" y="147.5" width="115" height="35" as="geometry" />
        </mxCell>
        <mxCell id="TonXEYxNk_pdtellfxzJ-10" value="&lt;font style=&quot;font-size: 15px;&quot;&gt;Регистрация&lt;/font&gt;" style="text;html=1;strokeColor=none;fillColor=none;align=center;verticalAlign=middle;whiteSpace=wrap;rounded=0;fontSize=15;fontColor=#FFFFFF;fontStyle=1" parent="TonXEYxNk_pdtellfxzJ-1" vertex="1">
          <mxGeometry x="245" y="150" width="60" height="30" as="geometry" />
        </mxCell>
        <mxCell id="TonXEYxNk_pdtellfxzJ-11" value="&lt;font style=&quot;font-size: 15px;&quot;&gt;Вход&lt;br&gt;&lt;/font&gt;" style="text;html=1;strokeColor=none;fillColor=none;align=center;verticalAlign=middle;whiteSpace=wrap;rounded=0;fontSize=15;fontColor=#000000;fontStyle=1" parent="TonXEYxNk_pdtellfxzJ-1" vertex="1">
          <mxGeometry x="120" y="150" width="60" height="30" as="geometry" />
        </mxCell>
        <mxCell id="oxmOQwXnHjn4c82_FcJg-0" value="&lt;font style=&quot;font-size: 14px;&quot;&gt;&amp;nbsp; &amp;nbsp; Пароль&lt;/font&gt;" style="rounded=0;whiteSpace=wrap;html=1;shadow=1;glass=0;sketch=0;strokeColor=default;strokeWidth=1;fontSize=19;fillColor=#FFFFFF;align=left;" parent="TonXEYxNk_pdtellfxzJ-1" vertex="1">
          <mxGeometry x="90" y="340" width="250" height="40" as="geometry" />
        </mxCell>
        <mxCell id="QVmlz6KwpTpElMxGcR1Y-0" value="&lt;font color=&quot;#ff3333&quot; style=&quot;font-size: 13px;&quot;&gt;Аккаунт с таким логином уже есть&lt;/font&gt;" style="text;html=1;strokeColor=none;fillColor=none;align=left;verticalAlign=middle;whiteSpace=wrap;rounded=0;fontSize=9;" parent="TonXEYxNk_pdtellfxzJ-1" vertex="1">
          <mxGeometry x="90" y="250" width="220" height="30" as="geometry" />
        </mxCell>
        <mxCell id="QVmlz6KwpTpElMxGcR1Y-1" value="&lt;font style=&quot;font-size: 14px;&quot;&gt;&amp;nbsp; &amp;nbsp; Повторите пароль&lt;/font&gt;" style="rounded=0;whiteSpace=wrap;html=1;shadow=1;glass=0;sketch=0;strokeColor=default;strokeWidth=1;fontSize=19;fillColor=#FFFFFF;align=left;" parent="TonXEYxNk_pdtellfxzJ-1" vertex="1">
          <mxGeometry x="90" y="400" width="250" height="40" as="geometry" />
        </mxCell>
        <mxCell id="TonXEYxNk_pdtellfxzJ-3" value="" style="rounded=0;whiteSpace=wrap;html=1;fillColor=none;movable=1;resizable=1;rotatable=1;deletable=1;editable=1;connectable=1;strokeColor=#000000;strokeWidth=3;" parent="TonXEYxNk_pdtellfxzJ-1" vertex="1">
          <mxGeometry x="80" y="120" width="270" height="400" as="geometry" />
        </mxCell>
      </root>
    </mxGraphModel>
  </diagram>
  <diagram name="Просмотрщик" id="BjL6UHl_zuvoI7OO7HAw">
    <mxGraphModel dx="982" dy="990" grid="1" gridSize="10" guides="1" tooltips="1" connect="1" arrows="1" fold="1" page="1" pageScale="1" pageWidth="827" pageHeight="1169" math="0" shadow="0">
      <root>
        <mxCell id="LJoN_02pNp6_m8n6nRw5-0" />
        <mxCell id="LJoN_02pNp6_m8n6nRw5-1" parent="LJoN_02pNp6_m8n6nRw5-0" />
        <mxCell id="LJoN_02pNp6_m8n6nRw5-3" value="" style="rounded=0;whiteSpace=wrap;html=1;fillColor=none;movable=1;resizable=1;rotatable=1;deletable=1;editable=1;connectable=1;strokeColor=#000000;strokeWidth=3;" parent="LJoN_02pNp6_m8n6nRw5-1" vertex="1">
          <mxGeometry x="80" y="80" width="560" height="440" as="geometry" />
        </mxCell>
        <mxCell id="LJoN_02pNp6_m8n6nRw5-2" value="" style="rounded=0;whiteSpace=wrap;html=1;shadow=0;glass=0;sketch=0;strokeWidth=2;fontSize=9;strokeColor=none;" parent="LJoN_02pNp6_m8n6nRw5-1" vertex="1">
          <mxGeometry x="40" y="40" width="640" height="520" as="geometry" />
        </mxCell>
        <mxCell id="LJoN_02pNp6_m8n6nRw5-4" value="" style="rounded=0;whiteSpace=wrap;html=1;fontSize=9;fillColor=#000000;fontColor=#333333;strokeColor=none;" parent="LJoN_02pNp6_m8n6nRw5-1" vertex="1">
          <mxGeometry x="80" y="80" width="560" height="440" as="geometry" />
        </mxCell>
        <mxCell id="LJoN_02pNp6_m8n6nRw5-5" value="&lt;font style=&quot;font-size: 16px;&quot;&gt;image_2024-12-31_23-59-59.png&lt;/font&gt;" style="text;html=1;align=center;verticalAlign=middle;whiteSpace=wrap;rounded=0;fontSize=9;fontStyle=1;fontColor=#FFFFFF;" parent="LJoN_02pNp6_m8n6nRw5-1" vertex="1">
          <mxGeometry x="200" y="90" width="300" height="30" as="geometry" />
        </mxCell>
        <mxCell id="qvdX_lJQyJoHB2lO-QVZ-1" value="" style="endArrow=classic;html=1;rounded=0;strokeWidth=5;fontSize=13;fontColor=#FF3333;strokeColor=#FFFFFF;" parent="LJoN_02pNp6_m8n6nRw5-1" edge="1">
          <mxGeometry width="50" height="50" relative="1" as="geometry">
            <mxPoint x="120" y="104.66" as="sourcePoint" />
            <mxPoint x="90" y="104.66" as="targetPoint" />
          </mxGeometry>
        </mxCell>
        <mxCell id="n8u2toQH7skOiaz-glsf-0" value="" style="rounded=0;whiteSpace=wrap;html=1;fillColor=#dae8fc;strokeColor=#6c8ebf;" parent="LJoN_02pNp6_m8n6nRw5-1" vertex="1">
          <mxGeometry x="80" y="150" width="560" height="300" as="geometry" />
        </mxCell>
        <mxCell id="n8u2toQH7skOiaz-glsf-1" value="" style="sketch=0;outlineConnect=0;fontColor=#232F3E;gradientColor=none;fillColor=#6C8EBF;strokeColor=none;dashed=0;verticalLabelPosition=bottom;verticalAlign=top;align=center;html=1;fontSize=12;fontStyle=0;aspect=fixed;pointerEvents=1;shape=mxgraph.aws4.container_registry_image;" parent="LJoN_02pNp6_m8n6nRw5-1" vertex="1">
          <mxGeometry x="310" y="250" width="100" height="100" as="geometry" />
        </mxCell>
        <mxCell id="53ZlMC2iWqfgRbWZhuvW-1" value="" style="triangle;whiteSpace=wrap;html=1;rounded=1;shadow=1;glass=0;sketch=0;strokeColor=default;strokeWidth=1;fontSize=16;fontColor=#FFFFFF;fillColor=#FFFFFF;" parent="LJoN_02pNp6_m8n6nRw5-1" vertex="1">
          <mxGeometry x="610" y="280" width="30" height="40" as="geometry" />
        </mxCell>
        <mxCell id="n8u2toQH7skOiaz-glsf-4" value="" style="triangle;whiteSpace=wrap;html=1;rounded=1;shadow=1;glass=0;sketch=0;strokeColor=default;strokeWidth=1;fontSize=16;fontColor=#FFFFFF;fillColor=#FFFFFF;rotation=-180;" parent="LJoN_02pNp6_m8n6nRw5-1" vertex="1">
          <mxGeometry x="80" y="280" width="30" height="40" as="geometry" />
        </mxCell>
      </root>
    </mxGraphModel>
  </diagram>
  <diagram id="KZdmENuJipjBWDCODkp-" name="Альбомы">
    <mxGraphModel dx="751" dy="566" grid="1" gridSize="10" guides="1" tooltips="1" connect="1" arrows="1" fold="1" page="1" pageScale="1" pageWidth="827" pageHeight="1169" math="0" shadow="0">
      <root>
        <mxCell id="0" />
        <mxCell id="1" parent="0" />
        <mxCell id="Jx6l1pGOeKFjxGcO3cCI-1" value="" style="rounded=0;whiteSpace=wrap;html=1;shadow=0;glass=0;sketch=0;strokeWidth=2;fontSize=9;strokeColor=none;" vertex="1" parent="1">
          <mxGeometry x="40" y="40" width="360" height="520" as="geometry" />
        </mxCell>
        <mxCell id="Jx6l1pGOeKFjxGcO3cCI-2" value="" style="rounded=0;whiteSpace=wrap;html=1;fontSize=9;fillColor=#f5f5f5;fontColor=#333333;strokeColor=none;" vertex="1" parent="1">
          <mxGeometry x="80" y="80" width="270" height="440" as="geometry" />
        </mxCell>
        <mxCell id="Jx6l1pGOeKFjxGcO3cCI-26" value="Локальные" style="text;html=1;strokeColor=none;fillColor=none;align=left;verticalAlign=middle;whiteSpace=wrap;rounded=0;fontSize=14;" vertex="1" parent="1">
          <mxGeometry x="90" y="425" width="250" height="30" as="geometry" />
        </mxCell>
        <mxCell id="Jx6l1pGOeKFjxGcO3cCI-71" value="" style="rounded=1;whiteSpace=wrap;html=1;shadow=1;glass=0;sketch=0;strokeColor=#666666;strokeWidth=3;fontSize=16;fillColor=#f5f5f5;fontColor=#333333;" vertex="1" parent="1">
          <mxGeometry x="90" y="285" width="120" height="140" as="geometry" />
        </mxCell>
        <mxCell id="Jx6l1pGOeKFjxGcO3cCI-72" value="" style="rounded=0;whiteSpace=wrap;html=1;fillColor=#dae8fc;strokeColor=#6c8ebf;" vertex="1" parent="1">
          <mxGeometry x="100" y="295" width="50" height="50" as="geometry" />
        </mxCell>
        <mxCell id="Jx6l1pGOeKFjxGcO3cCI-73" value="" style="sketch=0;outlineConnect=0;fontColor=#232F3E;gradientColor=none;fillColor=#6C8EBF;strokeColor=none;dashed=0;verticalLabelPosition=bottom;verticalAlign=top;align=center;html=1;fontSize=12;fontStyle=0;aspect=fixed;pointerEvents=1;shape=mxgraph.aws4.container_registry_image;" vertex="1" parent="1">
          <mxGeometry x="112.88" y="307.87" width="24.25" height="24.25" as="geometry" />
        </mxCell>
        <mxCell id="Jx6l1pGOeKFjxGcO3cCI-74" value="" style="rounded=0;whiteSpace=wrap;html=1;fillColor=#dae8fc;strokeColor=#6c8ebf;" vertex="1" parent="1">
          <mxGeometry x="150" y="295" width="50" height="50" as="geometry" />
        </mxCell>
        <mxCell id="Jx6l1pGOeKFjxGcO3cCI-75" value="" style="sketch=0;outlineConnect=0;fontColor=#232F3E;gradientColor=none;fillColor=#6C8EBF;strokeColor=none;dashed=0;verticalLabelPosition=bottom;verticalAlign=top;align=center;html=1;fontSize=12;fontStyle=0;aspect=fixed;pointerEvents=1;shape=mxgraph.aws4.container_registry_image;" vertex="1" parent="1">
          <mxGeometry x="162.88" y="307.87" width="24.25" height="24.25" as="geometry" />
        </mxCell>
        <mxCell id="Jx6l1pGOeKFjxGcO3cCI-76" value="" style="rounded=0;whiteSpace=wrap;html=1;fillColor=#dae8fc;strokeColor=#6c8ebf;" vertex="1" parent="1">
          <mxGeometry x="100" y="345" width="50" height="50" as="geometry" />
        </mxCell>
        <mxCell id="Jx6l1pGOeKFjxGcO3cCI-77" value="" style="sketch=0;outlineConnect=0;fontColor=#232F3E;gradientColor=none;fillColor=#6C8EBF;strokeColor=none;dashed=0;verticalLabelPosition=bottom;verticalAlign=top;align=center;html=1;fontSize=12;fontStyle=0;aspect=fixed;pointerEvents=1;shape=mxgraph.aws4.container_registry_image;" vertex="1" parent="1">
          <mxGeometry x="112.88" y="357.87" width="24.25" height="24.25" as="geometry" />
        </mxCell>
        <mxCell id="Jx6l1pGOeKFjxGcO3cCI-78" value="" style="rounded=0;whiteSpace=wrap;html=1;fillColor=#dae8fc;strokeColor=#6c8ebf;" vertex="1" parent="1">
          <mxGeometry x="150" y="344.99" width="50" height="50" as="geometry" />
        </mxCell>
        <mxCell id="Jx6l1pGOeKFjxGcO3cCI-79" value="" style="sketch=0;outlineConnect=0;fontColor=#232F3E;gradientColor=none;fillColor=#6C8EBF;strokeColor=none;dashed=0;verticalLabelPosition=bottom;verticalAlign=top;align=center;html=1;fontSize=12;fontStyle=0;aspect=fixed;pointerEvents=1;shape=mxgraph.aws4.container_registry_image;" vertex="1" parent="1">
          <mxGeometry x="162.88" y="357.86" width="24.25" height="24.25" as="geometry" />
        </mxCell>
        <mxCell id="Jx6l1pGOeKFjxGcO3cCI-80" value="&lt;font style=&quot;font-size: 13px;&quot;&gt;Загрузки&amp;nbsp; &amp;nbsp; &amp;nbsp; &amp;nbsp; 26&lt;/font&gt;" style="text;html=1;strokeColor=none;fillColor=none;align=center;verticalAlign=middle;whiteSpace=wrap;rounded=0;fontSize=16;fontColor=#000000;" vertex="1" parent="1">
          <mxGeometry x="100" y="394.99" width="100" height="20.01" as="geometry" />
        </mxCell>
        <mxCell id="Jx6l1pGOeKFjxGcO3cCI-81" value="" style="rounded=1;whiteSpace=wrap;html=1;shadow=1;glass=0;sketch=0;strokeColor=#666666;strokeWidth=3;fontSize=16;fillColor=#f5f5f5;fontColor=#333333;" vertex="1" parent="1">
          <mxGeometry x="220" y="285" width="120" height="140" as="geometry" />
        </mxCell>
        <mxCell id="Jx6l1pGOeKFjxGcO3cCI-82" value="" style="rounded=0;whiteSpace=wrap;html=1;fillColor=#dae8fc;strokeColor=#6c8ebf;" vertex="1" parent="1">
          <mxGeometry x="230" y="295" width="50" height="50" as="geometry" />
        </mxCell>
        <mxCell id="Jx6l1pGOeKFjxGcO3cCI-83" value="" style="sketch=0;outlineConnect=0;fontColor=#232F3E;gradientColor=none;fillColor=#6C8EBF;strokeColor=none;dashed=0;verticalLabelPosition=bottom;verticalAlign=top;align=center;html=1;fontSize=12;fontStyle=0;aspect=fixed;pointerEvents=1;shape=mxgraph.aws4.container_registry_image;" vertex="1" parent="1">
          <mxGeometry x="242.88" y="307.87" width="24.25" height="24.25" as="geometry" />
        </mxCell>
        <mxCell id="Jx6l1pGOeKFjxGcO3cCI-84" value="" style="rounded=0;whiteSpace=wrap;html=1;fillColor=#dae8fc;strokeColor=#6c8ebf;" vertex="1" parent="1">
          <mxGeometry x="280" y="295" width="50" height="50" as="geometry" />
        </mxCell>
        <mxCell id="Jx6l1pGOeKFjxGcO3cCI-85" value="" style="sketch=0;outlineConnect=0;fontColor=#232F3E;gradientColor=none;fillColor=#6C8EBF;strokeColor=none;dashed=0;verticalLabelPosition=bottom;verticalAlign=top;align=center;html=1;fontSize=12;fontStyle=0;aspect=fixed;pointerEvents=1;shape=mxgraph.aws4.container_registry_image;" vertex="1" parent="1">
          <mxGeometry x="292.88" y="307.87" width="24.25" height="24.25" as="geometry" />
        </mxCell>
        <mxCell id="Jx6l1pGOeKFjxGcO3cCI-86" value="" style="rounded=0;whiteSpace=wrap;html=1;fillColor=#dae8fc;strokeColor=#6c8ebf;" vertex="1" parent="1">
          <mxGeometry x="230" y="345" width="50" height="50" as="geometry" />
        </mxCell>
        <mxCell id="Jx6l1pGOeKFjxGcO3cCI-87" value="" style="sketch=0;outlineConnect=0;fontColor=#232F3E;gradientColor=none;fillColor=#6C8EBF;strokeColor=none;dashed=0;verticalLabelPosition=bottom;verticalAlign=top;align=center;html=1;fontSize=12;fontStyle=0;aspect=fixed;pointerEvents=1;shape=mxgraph.aws4.container_registry_image;" vertex="1" parent="1">
          <mxGeometry x="242.88" y="357.87" width="24.25" height="24.25" as="geometry" />
        </mxCell>
        <mxCell id="Jx6l1pGOeKFjxGcO3cCI-88" value="" style="rounded=0;whiteSpace=wrap;html=1;fillColor=#dae8fc;strokeColor=#6c8ebf;" vertex="1" parent="1">
          <mxGeometry x="280" y="344.99" width="50" height="50" as="geometry" />
        </mxCell>
        <mxCell id="Jx6l1pGOeKFjxGcO3cCI-89" value="" style="sketch=0;outlineConnect=0;fontColor=#232F3E;gradientColor=none;fillColor=#6C8EBF;strokeColor=none;dashed=0;verticalLabelPosition=bottom;verticalAlign=top;align=center;html=1;fontSize=12;fontStyle=0;aspect=fixed;pointerEvents=1;shape=mxgraph.aws4.container_registry_image;" vertex="1" parent="1">
          <mxGeometry x="292.88" y="357.86" width="24.25" height="24.25" as="geometry" />
        </mxCell>
        <mxCell id="Jx6l1pGOeKFjxGcO3cCI-90" value="&lt;p style=&quot;line-height: 50%;&quot;&gt;&lt;font style=&quot;&quot;&gt;&lt;span style=&quot;font-size: 13px;&quot;&gt;Арты&amp;nbsp; &amp;nbsp; &amp;nbsp; &amp;nbsp; &amp;nbsp; &amp;nbsp; 192&lt;/span&gt;&lt;br style=&quot;&quot;&gt;&lt;font style=&quot;font-size: 8px;&quot;&gt;пользователь 2&lt;/font&gt;&lt;br style=&quot;&quot;&gt;&lt;/font&gt;&lt;/p&gt;" style="text;html=1;strokeColor=none;fillColor=none;align=left;verticalAlign=middle;whiteSpace=wrap;rounded=0;fontSize=15;fontColor=#000000;" vertex="1" parent="1">
          <mxGeometry x="230" y="400" width="100" height="15" as="geometry" />
        </mxCell>
        <mxCell id="Jx6l1pGOeKFjxGcO3cCI-25" value="На синхронизации" style="text;html=1;strokeColor=none;fillColor=none;align=left;verticalAlign=middle;whiteSpace=wrap;rounded=0;fontSize=14;" vertex="1" parent="1">
          <mxGeometry x="90" y="80" width="250" height="30" as="geometry" />
        </mxCell>
        <mxCell id="Jx6l1pGOeKFjxGcO3cCI-44" value="На сервере" style="text;html=1;strokeColor=none;fillColor=none;align=left;verticalAlign=middle;whiteSpace=wrap;rounded=0;fontSize=14;" vertex="1" parent="1">
          <mxGeometry x="90" y="255" width="250" height="30" as="geometry" />
        </mxCell>
        <mxCell id="Jx6l1pGOeKFjxGcO3cCI-49" value="" style="rounded=1;whiteSpace=wrap;html=1;shadow=1;glass=0;sketch=0;strokeColor=#666666;strokeWidth=3;fontSize=16;fillColor=#f5f5f5;fontColor=#333333;" vertex="1" parent="1">
          <mxGeometry x="90" y="110" width="120" height="140" as="geometry" />
        </mxCell>
        <mxCell id="Jx6l1pGOeKFjxGcO3cCI-9" value="" style="rounded=0;whiteSpace=wrap;html=1;fillColor=#dae8fc;strokeColor=#6c8ebf;" vertex="1" parent="1">
          <mxGeometry x="100" y="120" width="50" height="50" as="geometry" />
        </mxCell>
        <mxCell id="Jx6l1pGOeKFjxGcO3cCI-10" value="" style="sketch=0;outlineConnect=0;fontColor=#232F3E;gradientColor=none;fillColor=#6C8EBF;strokeColor=none;dashed=0;verticalLabelPosition=bottom;verticalAlign=top;align=center;html=1;fontSize=12;fontStyle=0;aspect=fixed;pointerEvents=1;shape=mxgraph.aws4.container_registry_image;" vertex="1" parent="1">
          <mxGeometry x="112.88" y="132.87" width="24.25" height="24.25" as="geometry" />
        </mxCell>
        <mxCell id="Jx6l1pGOeKFjxGcO3cCI-52" value="" style="rounded=0;whiteSpace=wrap;html=1;fillColor=#dae8fc;strokeColor=#6c8ebf;" vertex="1" parent="1">
          <mxGeometry x="150" y="120" width="50" height="50" as="geometry" />
        </mxCell>
        <mxCell id="Jx6l1pGOeKFjxGcO3cCI-53" value="" style="sketch=0;outlineConnect=0;fontColor=#232F3E;gradientColor=none;fillColor=#6C8EBF;strokeColor=none;dashed=0;verticalLabelPosition=bottom;verticalAlign=top;align=center;html=1;fontSize=12;fontStyle=0;aspect=fixed;pointerEvents=1;shape=mxgraph.aws4.container_registry_image;" vertex="1" parent="1">
          <mxGeometry x="162.88" y="132.87" width="24.25" height="24.25" as="geometry" />
        </mxCell>
        <mxCell id="Jx6l1pGOeKFjxGcO3cCI-54" value="" style="rounded=0;whiteSpace=wrap;html=1;fillColor=#dae8fc;strokeColor=#6c8ebf;" vertex="1" parent="1">
          <mxGeometry x="100" y="170" width="50" height="50" as="geometry" />
        </mxCell>
        <mxCell id="Jx6l1pGOeKFjxGcO3cCI-55" value="" style="sketch=0;outlineConnect=0;fontColor=#232F3E;gradientColor=none;fillColor=#6C8EBF;strokeColor=none;dashed=0;verticalLabelPosition=bottom;verticalAlign=top;align=center;html=1;fontSize=12;fontStyle=0;aspect=fixed;pointerEvents=1;shape=mxgraph.aws4.container_registry_image;" vertex="1" parent="1">
          <mxGeometry x="112.88" y="182.87" width="24.25" height="24.25" as="geometry" />
        </mxCell>
        <mxCell id="Jx6l1pGOeKFjxGcO3cCI-56" value="" style="rounded=0;whiteSpace=wrap;html=1;fillColor=#dae8fc;strokeColor=#6c8ebf;" vertex="1" parent="1">
          <mxGeometry x="150" y="169.99" width="50" height="50" as="geometry" />
        </mxCell>
        <mxCell id="Jx6l1pGOeKFjxGcO3cCI-57" value="" style="sketch=0;outlineConnect=0;fontColor=#232F3E;gradientColor=none;fillColor=#6C8EBF;strokeColor=none;dashed=0;verticalLabelPosition=bottom;verticalAlign=top;align=center;html=1;fontSize=12;fontStyle=0;aspect=fixed;pointerEvents=1;shape=mxgraph.aws4.container_registry_image;" vertex="1" parent="1">
          <mxGeometry x="162.88" y="182.86" width="24.25" height="24.25" as="geometry" />
        </mxCell>
        <mxCell id="Jx6l1pGOeKFjxGcO3cCI-59" value="&lt;font style=&quot;font-size: 13px;&quot;&gt;Камера&amp;nbsp; &amp;nbsp; &amp;nbsp; &amp;nbsp;476&lt;/font&gt;" style="text;html=1;strokeColor=none;fillColor=none;align=center;verticalAlign=middle;whiteSpace=wrap;rounded=0;fontSize=16;fontColor=#000000;" vertex="1" parent="1">
          <mxGeometry x="100" y="219.99" width="100" height="20.01" as="geometry" />
        </mxCell>
        <mxCell id="Jx6l1pGOeKFjxGcO3cCI-61" value="" style="rounded=1;whiteSpace=wrap;html=1;shadow=1;glass=0;sketch=0;strokeColor=#666666;strokeWidth=3;fontSize=16;fillColor=#f5f5f5;fontColor=#333333;" vertex="1" parent="1">
          <mxGeometry x="220" y="110" width="120" height="140" as="geometry" />
        </mxCell>
        <mxCell id="Jx6l1pGOeKFjxGcO3cCI-62" value="" style="rounded=0;whiteSpace=wrap;html=1;fillColor=#dae8fc;strokeColor=#6c8ebf;" vertex="1" parent="1">
          <mxGeometry x="230" y="120" width="50" height="50" as="geometry" />
        </mxCell>
        <mxCell id="Jx6l1pGOeKFjxGcO3cCI-63" value="" style="sketch=0;outlineConnect=0;fontColor=#232F3E;gradientColor=none;fillColor=#6C8EBF;strokeColor=none;dashed=0;verticalLabelPosition=bottom;verticalAlign=top;align=center;html=1;fontSize=12;fontStyle=0;aspect=fixed;pointerEvents=1;shape=mxgraph.aws4.container_registry_image;" vertex="1" parent="1">
          <mxGeometry x="242.88" y="132.87" width="24.25" height="24.25" as="geometry" />
        </mxCell>
        <mxCell id="Jx6l1pGOeKFjxGcO3cCI-64" value="" style="rounded=0;whiteSpace=wrap;html=1;fillColor=#dae8fc;strokeColor=#6c8ebf;" vertex="1" parent="1">
          <mxGeometry x="280" y="120" width="50" height="50" as="geometry" />
        </mxCell>
        <mxCell id="Jx6l1pGOeKFjxGcO3cCI-65" value="" style="sketch=0;outlineConnect=0;fontColor=#232F3E;gradientColor=none;fillColor=#6C8EBF;strokeColor=none;dashed=0;verticalLabelPosition=bottom;verticalAlign=top;align=center;html=1;fontSize=12;fontStyle=0;aspect=fixed;pointerEvents=1;shape=mxgraph.aws4.container_registry_image;" vertex="1" parent="1">
          <mxGeometry x="292.88" y="132.87" width="24.25" height="24.25" as="geometry" />
        </mxCell>
        <mxCell id="Jx6l1pGOeKFjxGcO3cCI-66" value="" style="rounded=0;whiteSpace=wrap;html=1;fillColor=#dae8fc;strokeColor=#6c8ebf;" vertex="1" parent="1">
          <mxGeometry x="230" y="170" width="50" height="50" as="geometry" />
        </mxCell>
        <mxCell id="Jx6l1pGOeKFjxGcO3cCI-67" value="" style="sketch=0;outlineConnect=0;fontColor=#232F3E;gradientColor=none;fillColor=#6C8EBF;strokeColor=none;dashed=0;verticalLabelPosition=bottom;verticalAlign=top;align=center;html=1;fontSize=12;fontStyle=0;aspect=fixed;pointerEvents=1;shape=mxgraph.aws4.container_registry_image;" vertex="1" parent="1">
          <mxGeometry x="242.88" y="182.87" width="24.25" height="24.25" as="geometry" />
        </mxCell>
        <mxCell id="Jx6l1pGOeKFjxGcO3cCI-68" value="" style="rounded=0;whiteSpace=wrap;html=1;fillColor=#dae8fc;strokeColor=#6c8ebf;" vertex="1" parent="1">
          <mxGeometry x="280" y="169.99" width="50" height="50" as="geometry" />
        </mxCell>
        <mxCell id="Jx6l1pGOeKFjxGcO3cCI-69" value="" style="sketch=0;outlineConnect=0;fontColor=#232F3E;gradientColor=none;fillColor=#6C8EBF;strokeColor=none;dashed=0;verticalLabelPosition=bottom;verticalAlign=top;align=center;html=1;fontSize=12;fontStyle=0;aspect=fixed;pointerEvents=1;shape=mxgraph.aws4.container_registry_image;" vertex="1" parent="1">
          <mxGeometry x="292.88" y="182.86" width="24.25" height="24.25" as="geometry" />
        </mxCell>
        <mxCell id="Jx6l1pGOeKFjxGcO3cCI-70" value="&lt;font style=&quot;font-size: 13px;&quot;&gt;Скриншоты&amp;nbsp; 39&lt;/font&gt;" style="text;html=1;strokeColor=none;fillColor=none;align=center;verticalAlign=middle;whiteSpace=wrap;rounded=0;fontSize=16;fontColor=#000000;" vertex="1" parent="1">
          <mxGeometry x="230" y="219.99" width="100" height="20.01" as="geometry" />
        </mxCell>
        <mxCell id="Jx6l1pGOeKFjxGcO3cCI-91" value="" style="rounded=1;whiteSpace=wrap;html=1;shadow=1;glass=0;sketch=0;strokeColor=#666666;strokeWidth=3;fontSize=16;fillColor=#f5f5f5;fontColor=#333333;" vertex="1" parent="1">
          <mxGeometry x="90" y="455" width="120" height="140" as="geometry" />
        </mxCell>
        <mxCell id="Jx6l1pGOeKFjxGcO3cCI-92" value="" style="rounded=0;whiteSpace=wrap;html=1;fillColor=#dae8fc;strokeColor=#6c8ebf;" vertex="1" parent="1">
          <mxGeometry x="100" y="465" width="50" height="50" as="geometry" />
        </mxCell>
        <mxCell id="Jx6l1pGOeKFjxGcO3cCI-93" value="" style="sketch=0;outlineConnect=0;fontColor=#232F3E;gradientColor=none;fillColor=#6C8EBF;strokeColor=none;dashed=0;verticalLabelPosition=bottom;verticalAlign=top;align=center;html=1;fontSize=12;fontStyle=0;aspect=fixed;pointerEvents=1;shape=mxgraph.aws4.container_registry_image;" vertex="1" parent="1">
          <mxGeometry x="112.88" y="477.87" width="24.25" height="24.25" as="geometry" />
        </mxCell>
        <mxCell id="Jx6l1pGOeKFjxGcO3cCI-94" value="" style="rounded=0;whiteSpace=wrap;html=1;fillColor=#dae8fc;strokeColor=#6c8ebf;" vertex="1" parent="1">
          <mxGeometry x="150" y="465" width="50" height="50" as="geometry" />
        </mxCell>
        <mxCell id="Jx6l1pGOeKFjxGcO3cCI-95" value="" style="sketch=0;outlineConnect=0;fontColor=#232F3E;gradientColor=none;fillColor=#6C8EBF;strokeColor=none;dashed=0;verticalLabelPosition=bottom;verticalAlign=top;align=center;html=1;fontSize=12;fontStyle=0;aspect=fixed;pointerEvents=1;shape=mxgraph.aws4.container_registry_image;" vertex="1" parent="1">
          <mxGeometry x="162.88" y="477.87" width="24.25" height="24.25" as="geometry" />
        </mxCell>
        <mxCell id="Jx6l1pGOeKFjxGcO3cCI-96" value="" style="rounded=0;whiteSpace=wrap;html=1;fillColor=#dae8fc;strokeColor=#6c8ebf;" vertex="1" parent="1">
          <mxGeometry x="100" y="515" width="50" height="50" as="geometry" />
        </mxCell>
        <mxCell id="Jx6l1pGOeKFjxGcO3cCI-97" value="" style="sketch=0;outlineConnect=0;fontColor=#232F3E;gradientColor=none;fillColor=#6C8EBF;strokeColor=none;dashed=0;verticalLabelPosition=bottom;verticalAlign=top;align=center;html=1;fontSize=12;fontStyle=0;aspect=fixed;pointerEvents=1;shape=mxgraph.aws4.container_registry_image;" vertex="1" parent="1">
          <mxGeometry x="112.88" y="527.87" width="24.25" height="24.25" as="geometry" />
        </mxCell>
        <mxCell id="Jx6l1pGOeKFjxGcO3cCI-98" value="" style="rounded=0;whiteSpace=wrap;html=1;fillColor=#dae8fc;strokeColor=#6c8ebf;" vertex="1" parent="1">
          <mxGeometry x="150" y="514.99" width="50" height="50" as="geometry" />
        </mxCell>
        <mxCell id="Jx6l1pGOeKFjxGcO3cCI-99" value="" style="sketch=0;outlineConnect=0;fontColor=#232F3E;gradientColor=none;fillColor=#6C8EBF;strokeColor=none;dashed=0;verticalLabelPosition=bottom;verticalAlign=top;align=center;html=1;fontSize=12;fontStyle=0;aspect=fixed;pointerEvents=1;shape=mxgraph.aws4.container_registry_image;" vertex="1" parent="1">
          <mxGeometry x="162.88" y="527.86" width="24.25" height="24.25" as="geometry" />
        </mxCell>
        <mxCell id="Jx6l1pGOeKFjxGcO3cCI-100" value="&lt;font style=&quot;font-size: 13px;&quot;&gt;Камера&amp;nbsp; &amp;nbsp; &amp;nbsp; &amp;nbsp;476&lt;/font&gt;" style="text;html=1;strokeColor=none;fillColor=none;align=center;verticalAlign=middle;whiteSpace=wrap;rounded=0;fontSize=16;fontColor=#000000;" vertex="1" parent="1">
          <mxGeometry x="100" y="564.99" width="100" height="20.01" as="geometry" />
        </mxCell>
        <mxCell id="Jx6l1pGOeKFjxGcO3cCI-101" value="" style="rounded=1;whiteSpace=wrap;html=1;shadow=1;glass=0;sketch=0;strokeColor=#666666;strokeWidth=3;fontSize=16;fillColor=#f5f5f5;fontColor=#333333;" vertex="1" parent="1">
          <mxGeometry x="220" y="455" width="120" height="140" as="geometry" />
        </mxCell>
        <mxCell id="Jx6l1pGOeKFjxGcO3cCI-102" value="" style="rounded=0;whiteSpace=wrap;html=1;fillColor=#dae8fc;strokeColor=#6c8ebf;" vertex="1" parent="1">
          <mxGeometry x="230" y="465" width="50" height="50" as="geometry" />
        </mxCell>
        <mxCell id="Jx6l1pGOeKFjxGcO3cCI-103" value="" style="sketch=0;outlineConnect=0;fontColor=#232F3E;gradientColor=none;fillColor=#6C8EBF;strokeColor=none;dashed=0;verticalLabelPosition=bottom;verticalAlign=top;align=center;html=1;fontSize=12;fontStyle=0;aspect=fixed;pointerEvents=1;shape=mxgraph.aws4.container_registry_image;" vertex="1" parent="1">
          <mxGeometry x="242.88" y="477.87" width="24.25" height="24.25" as="geometry" />
        </mxCell>
        <mxCell id="Jx6l1pGOeKFjxGcO3cCI-104" value="" style="rounded=0;whiteSpace=wrap;html=1;fillColor=#dae8fc;strokeColor=#6c8ebf;" vertex="1" parent="1">
          <mxGeometry x="280" y="465" width="50" height="50" as="geometry" />
        </mxCell>
        <mxCell id="Jx6l1pGOeKFjxGcO3cCI-105" value="" style="sketch=0;outlineConnect=0;fontColor=#232F3E;gradientColor=none;fillColor=#6C8EBF;strokeColor=none;dashed=0;verticalLabelPosition=bottom;verticalAlign=top;align=center;html=1;fontSize=12;fontStyle=0;aspect=fixed;pointerEvents=1;shape=mxgraph.aws4.container_registry_image;" vertex="1" parent="1">
          <mxGeometry x="292.88" y="477.87" width="24.25" height="24.25" as="geometry" />
        </mxCell>
        <mxCell id="Jx6l1pGOeKFjxGcO3cCI-106" value="" style="rounded=0;whiteSpace=wrap;html=1;fillColor=#dae8fc;strokeColor=#6c8ebf;" vertex="1" parent="1">
          <mxGeometry x="230" y="515" width="50" height="50" as="geometry" />
        </mxCell>
        <mxCell id="Jx6l1pGOeKFjxGcO3cCI-107" value="" style="sketch=0;outlineConnect=0;fontColor=#232F3E;gradientColor=none;fillColor=#6C8EBF;strokeColor=none;dashed=0;verticalLabelPosition=bottom;verticalAlign=top;align=center;html=1;fontSize=12;fontStyle=0;aspect=fixed;pointerEvents=1;shape=mxgraph.aws4.container_registry_image;" vertex="1" parent="1">
          <mxGeometry x="242.88" y="527.87" width="24.25" height="24.25" as="geometry" />
        </mxCell>
        <mxCell id="Jx6l1pGOeKFjxGcO3cCI-108" value="" style="rounded=0;whiteSpace=wrap;html=1;fillColor=#dae8fc;strokeColor=#6c8ebf;" vertex="1" parent="1">
          <mxGeometry x="280" y="514.99" width="50" height="50" as="geometry" />
        </mxCell>
        <mxCell id="Jx6l1pGOeKFjxGcO3cCI-109" value="" style="sketch=0;outlineConnect=0;fontColor=#232F3E;gradientColor=none;fillColor=#6C8EBF;strokeColor=none;dashed=0;verticalLabelPosition=bottom;verticalAlign=top;align=center;html=1;fontSize=12;fontStyle=0;aspect=fixed;pointerEvents=1;shape=mxgraph.aws4.container_registry_image;" vertex="1" parent="1">
          <mxGeometry x="292.88" y="527.86" width="24.25" height="24.25" as="geometry" />
        </mxCell>
        <mxCell id="Jx6l1pGOeKFjxGcO3cCI-110" value="&lt;font style=&quot;font-size: 13px;&quot;&gt;Камера&amp;nbsp; &amp;nbsp; &amp;nbsp; &amp;nbsp;476&lt;/font&gt;" style="text;html=1;strokeColor=none;fillColor=none;align=center;verticalAlign=middle;whiteSpace=wrap;rounded=0;fontSize=16;fontColor=#000000;" vertex="1" parent="1">
          <mxGeometry x="230" y="564.99" width="100" height="20.01" as="geometry" />
        </mxCell>
        <mxCell id="Jx6l1pGOeKFjxGcO3cCI-42" value="" style="rounded=0;whiteSpace=wrap;html=1;shadow=0;glass=0;sketch=0;strokeWidth=2;fontSize=9;strokeColor=none;" vertex="1" parent="1">
          <mxGeometry x="40" y="520" width="360" height="80" as="geometry" />
        </mxCell>
        <mxCell id="Jx6l1pGOeKFjxGcO3cCI-43" value="" style="rounded=0;whiteSpace=wrap;html=1;fillColor=none;movable=1;resizable=1;rotatable=1;deletable=1;editable=1;connectable=1;strokeColor=#000000;strokeWidth=3;" vertex="1" parent="1">
          <mxGeometry x="80" y="80" width="270" height="440" as="geometry" />
        </mxCell>
        <mxCell id="teAg38rfU0hiMOuES-BN-1" value="Вступить по коду" style="rounded=1;whiteSpace=wrap;html=1;fillColor=#647687;fontColor=#ffffff;strokeColor=#314354;glass=0;shadow=1;" vertex="1" parent="1">
          <mxGeometry x="230" y="259.5" width="107.5" height="17.5" as="geometry" />
        </mxCell>
      </root>
    </mxGraphModel>
  </diagram>
  <diagram name="Настройки" id="FIwaBty2qcAXqHyUMrn5">
    <mxGraphModel dx="622" dy="469" grid="1" gridSize="10" guides="1" tooltips="1" connect="1" arrows="1" fold="1" page="1" pageScale="1" pageWidth="827" pageHeight="1169" math="0" shadow="0">
      <root>
        <mxCell id="c0Y2ip4Vuv14za_2QlIE-0" />
        <mxCell id="c0Y2ip4Vuv14za_2QlIE-1" parent="c0Y2ip4Vuv14za_2QlIE-0" />
        <mxCell id="c0Y2ip4Vuv14za_2QlIE-2" value="" style="rounded=0;whiteSpace=wrap;html=1;shadow=0;glass=0;sketch=0;strokeWidth=2;fontSize=9;strokeColor=none;" vertex="1" parent="c0Y2ip4Vuv14za_2QlIE-1">
          <mxGeometry x="40" y="40" width="360" height="520" as="geometry" />
        </mxCell>
        <mxCell id="c0Y2ip4Vuv14za_2QlIE-3" value="" style="rounded=0;whiteSpace=wrap;html=1;fontSize=9;fillColor=#f5f5f5;fontColor=#333333;strokeColor=none;" vertex="1" parent="c0Y2ip4Vuv14za_2QlIE-1">
          <mxGeometry x="80" y="80" width="270" height="440" as="geometry" />
        </mxCell>
        <mxCell id="yULWd_ZQhLCskcbNwq_2-0" value="&lt;font style=&quot;&quot;&gt;&lt;span style=&quot;font-size: 18px;&quot;&gt;О себе&lt;br&gt;&lt;/span&gt;&lt;/font&gt;" style="rounded=0;whiteSpace=wrap;html=1;shadow=0;glass=0;sketch=0;strokeColor=default;strokeWidth=3;fontSize=8;fontColor=#000000;fillColor=#CCCCCC;" vertex="1" parent="c0Y2ip4Vuv14za_2QlIE-1">
          <mxGeometry x="90" y="90" width="250" height="140" as="geometry" />
        </mxCell>
        <mxCell id="yULWd_ZQhLCskcbNwq_2-1" value="&lt;span style=&quot;font-size: 18px;&quot;&gt;Квота&lt;/span&gt;" style="rounded=0;whiteSpace=wrap;html=1;shadow=0;glass=0;sketch=0;strokeColor=default;strokeWidth=3;fontSize=8;fontColor=#000000;fillColor=#CCCCCC;" vertex="1" parent="c0Y2ip4Vuv14za_2QlIE-1">
          <mxGeometry x="90" y="240" width="250" height="70" as="geometry" />
        </mxCell>
        <mxCell id="8DZ6XwP9cJvw1-PLTW3a-0" value="" style="rounded=1;whiteSpace=wrap;html=1;fillColor=#647687;fontColor=#ffffff;strokeColor=#314354;shadow=1;" vertex="1" parent="c0Y2ip4Vuv14za_2QlIE-1">
          <mxGeometry x="290" y="100" width="41" height="40" as="geometry" />
        </mxCell>
        <mxCell id="8DZ6XwP9cJvw1-PLTW3a-3" value="" style="html=1;verticalLabelPosition=bottom;align=center;labelBackgroundColor=#ffffff;verticalAlign=top;strokeWidth=2;strokeColor=#FFFFFF;shadow=0;dashed=0;shape=mxgraph.ios7.icons.pen;rounded=1;glass=0;sketch=0;fontSize=18;fontColor=#000000;fillColor=#CCCCCC;" vertex="1" parent="c0Y2ip4Vuv14za_2QlIE-1">
          <mxGeometry x="295.8" y="105.15" width="29.4" height="29.7" as="geometry" />
        </mxCell>
        <mxCell id="8DZ6XwP9cJvw1-PLTW3a-4" value="&lt;span style=&quot;font-size: 18px;&quot;&gt;О сервера&lt;/span&gt;" style="rounded=0;whiteSpace=wrap;html=1;shadow=0;glass=0;sketch=0;strokeColor=default;strokeWidth=3;fontSize=8;fontColor=#000000;fillColor=#CCCCCC;" vertex="1" parent="c0Y2ip4Vuv14za_2QlIE-1">
          <mxGeometry x="90" y="320" width="250" height="190" as="geometry" />
        </mxCell>
        <mxCell id="c0Y2ip4Vuv14za_2QlIE-8" value="" style="rounded=0;whiteSpace=wrap;html=1;fillColor=none;movable=1;resizable=1;rotatable=1;deletable=1;editable=1;connectable=1;strokeColor=#000000;strokeWidth=3;" vertex="1" parent="c0Y2ip4Vuv14za_2QlIE-1">
          <mxGeometry x="80" y="80" width="270" height="440" as="geometry" />
        </mxCell>
      </root>
    </mxGraphModel>
  </diagram>
</mxfile>
